<?xml version="1.0" encoding="UTF-8" standalone="no"?>
<!DOCTYPE svg PUBLIC "-//W3C//DTD SVG 1.1//EN" "http://www.w3.org/Graphics/SVG/1.1/DTD/svg11.dtd">
<svg width="100%" height="100%" viewBox="0 0 650 650" version="1.1" xmlns="http://www.w3.org/2000/svg" xmlns:xlink="http://www.w3.org/1999/xlink" xml:space="preserve" style="fill-rule:evenodd;clip-rule:evenodd;stroke-linejoin:round;stroke-miterlimit:1.41421;">
    <g transform="matrix(1,0,0,1,-85.599,12.4129)">
        <circle cx="410.245" cy="312.233" r="324.646" style="fill:rgb(0,166,85);"/>
    </g>
    <g transform="matrix(1,0,0,1,66.815,-41.3326)">
        <path d="M508.107,177.974L272.896,177.974L261.617,138.353L153.114,139.227L144.086,179.513L144.086,502.374L508.107,502.374L508.107,177.974Z" style="fill:rgb(225,225,225);"/>
    </g>
    <g transform="matrix(1.03149,0,0,1,3.47133,-11.6566)">
        <path d="M508.107,177.974L272.896,177.974L261.617,138.353L153.114,139.227L144.086,179.513L144.086,502.374L508.107,502.374L508.107,177.974Z" style="fill:rgb(182,182,182);"/>
    </g>
    <g transform="matrix(1.03769,0,0,1,-61.7385,27.447)">
        <path d="M508.107,177.974L272.896,177.974L261.617,138.353L153.114,139.227L144.086,179.513L144.086,502.374L508.107,502.374L508.107,177.974Z" style="fill:rgb(235,235,235);"/>
    </g>
</svg>
